# xmcd CD database file
#
# Track frame offsets:
#	150
#	18885
#	42077
#	55180
#	76915
#	96915
#	114322
#	134582
#	148735
#	162645
#	178917
#
# Disc length: 2657 seconds
#
# Revision: 0
# Processed by: cddbd v1.4PL0 Copyright (c) Steve Scherf et al.
# Submitted via: CDex 1.40Release
#
DISCID=940a5f0b
DTITLE=Rosanne Cash - At The Bottom Line
DYEAR=1988
DGENRE=Country
TTITLE0=Hold On
TTITLE1=My Baby Thinks He's A Train
TTITLE2=Tennessee Flat-Top Box
TTITLE3=The Way We Make A Broken Heart
TTITLE4=Runaway Train
TTITLE5=707
TTITLE6=What Kinda Girl
TTITLE7=I Don't Know Why You Don't Want Me
TTITLE8=Pink Bedroom
TTITLE9=Seven Year Ache
TTITLE10=Blue Moon With Heartache
EXTD=YEAR: 1988 ID3G: 2
EXTT0=
EXTT1=
EXTT2=
EXTT3=
EXTT4=
EXTT5=
EXTT6=
EXTT7=
EXTT8=
EXTT9=
EXTT10=
PLAYORDER=
